<svg width="560" height="583" viewBox="0 0 560 583" fill="none" xmlns="http://www.w3.org/2000/svg">
    <g clip-path="url(#clip0_239_8783)">
    <path d="M420.747 125.949L142.158 90.4311C141.408 90.3348 140.652 90.2858 139.895 90.2842C139.15 90.2829 138.404 90.33 137.665 90.425C136.926 90.52 136.195 90.6631 135.475 90.8536C134.747 91.048 134.032 91.2892 133.335 91.5758C132.652 91.8562 131.987 92.1778 131.343 92.5388C130.69 92.9025 130.059 93.3045 129.454 93.7426C128.835 94.1921 128.242 94.6764 127.677 95.1931C127.095 95.7248 126.541 96.2874 126.018 96.8783C125.482 97.4869 124.978 98.1225 124.507 98.7827C124.031 99.4511 123.584 100.147 123.167 100.869C122.75 101.593 122.362 102.347 122.005 103.129C121.648 103.912 121.322 104.721 121.028 105.556C120.723 106.42 120.456 107.302 120.226 108.204C119.997 109.106 119.805 110.024 119.651 110.957C119.5 111.89 119.384 112.838 119.304 113.801C119.224 114.764 119.184 115.738 119.184 116.725C119.187 117.71 119.227 118.692 119.304 119.671C119.381 120.65 119.497 121.621 119.651 122.584C119.806 123.551 119.999 124.509 120.228 125.457C120.458 126.404 120.725 127.341 121.03 128.267C121.325 129.162 121.65 130.036 122.008 130.89C122.365 131.745 122.752 132.576 123.169 133.384C123.586 134.193 124.033 134.977 124.509 135.739C124.984 136.504 125.488 137.24 126.021 137.947C126.554 138.654 127.107 139.328 127.68 139.97C128.253 140.608 128.845 141.21 129.456 141.776C130.068 142.342 130.697 142.87 131.345 143.361C131.986 143.847 132.651 144.301 133.337 144.719C134.029 145.141 134.743 145.524 135.478 145.866C136.19 146.198 136.921 146.488 137.667 146.734C138.398 146.975 139.143 147.172 139.898 147.323C140.645 147.472 141.401 147.574 142.161 147.63L420.749 168.008C421.559 168.067 422.374 167.985 423.157 167.767C423.555 167.656 423.943 167.513 424.318 167.339C424.71 167.157 425.087 166.945 425.446 166.707C425.811 166.465 426.159 166.199 426.489 165.912C426.835 165.611 427.163 165.289 427.471 164.949C427.796 164.59 428.103 164.214 428.389 163.822C428.685 163.42 428.97 162.99 429.243 162.534C429.516 162.079 429.774 161.603 430.017 161.108C430.26 160.613 430.487 160.098 430.699 159.565C430.912 159.032 431.109 158.481 431.289 157.911C431.47 157.341 431.634 156.754 431.783 156.151C431.939 155.527 432.074 154.891 432.187 154.244C432.3 153.597 432.397 152.941 432.477 152.275C432.555 151.609 432.613 150.934 432.652 150.25C432.69 149.566 432.71 148.875 432.71 148.176C432.707 147.478 432.688 146.783 432.652 146.091C432.616 145.399 432.557 144.713 432.477 144.032C432.399 143.35 432.303 142.675 432.187 142.004C432.072 141.334 431.937 140.672 431.783 140.016C431.634 139.382 431.47 138.762 431.289 138.157C431.11 137.56 430.914 136.972 430.699 136.393C430.485 135.813 430.257 135.251 430.017 134.707C429.774 134.164 429.516 133.637 429.243 133.126C428.969 132.614 428.685 132.128 428.389 131.667C428.094 131.205 427.788 130.768 427.471 130.355C427.154 129.941 426.826 129.554 426.489 129.194C426.159 128.841 425.811 128.506 425.446 128.19C425.088 127.881 424.712 127.594 424.318 127.332C423.947 127.084 423.559 126.863 423.157 126.67C422.772 126.485 422.373 126.331 421.965 126.208C421.567 126.088 421.159 126.002 420.747 125.949" fill="#3662E3"/>
    <path d="M420.747 206.055L142.158 199.382C140.647 199.345 139.137 199.499 137.665 199.841C136.922 200.014 136.191 200.233 135.475 200.497C134.743 200.767 134.029 201.08 133.335 201.436C132.65 201.787 131.985 202.176 131.343 202.601C130.688 203.034 130.058 203.503 129.454 204.004C128.834 204.518 128.241 205.063 127.677 205.638C127.103 206.222 126.551 206.844 126.018 207.502C125.486 208.161 124.982 208.849 124.507 209.564C124.031 210.279 123.584 211.02 123.167 211.788C122.749 212.556 122.362 213.35 122.005 214.169C121.648 214.989 121.322 215.831 121.028 216.697C120.723 217.593 120.456 218.504 120.226 219.43C119.996 220.355 119.805 221.292 119.651 222.242C119.5 223.191 119.384 224.151 119.304 225.122C119.224 226.093 119.184 227.072 119.184 228.058C119.187 229.044 119.227 230.023 119.304 230.993C119.381 231.963 119.497 232.922 119.651 233.871C119.806 234.815 119.999 235.748 120.228 236.672C120.458 237.596 120.725 238.505 121.03 239.4C121.325 240.268 121.65 241.111 122.008 241.928C122.365 242.745 122.752 243.536 123.169 244.301C123.586 245.067 124.033 245.806 124.509 246.518C124.984 247.227 125.488 247.909 126.021 248.564C126.554 249.219 127.107 249.836 127.68 250.417C128.244 250.988 128.837 251.53 129.456 252.04C130.06 252.538 130.691 253.002 131.345 253.431C131.987 253.852 132.652 254.236 133.337 254.583C134.031 254.934 134.746 255.243 135.478 255.508C136.193 255.768 136.925 255.982 137.667 256.15C138.402 256.317 139.147 256.438 139.898 256.511C140.65 256.583 141.406 256.608 142.161 256.585L420.747 248.109C421.156 248.096 421.564 248.049 421.965 247.968C422.371 247.886 422.769 247.77 423.157 247.623C423.557 247.469 423.946 247.286 424.318 247.074C424.711 246.85 425.088 246.6 425.446 246.325C425.811 246.045 426.159 245.743 426.489 245.422C426.835 245.085 427.162 244.73 427.471 244.358C427.787 243.979 428.093 243.572 428.389 243.136C428.685 242.701 428.97 242.242 429.243 241.76C429.516 241.276 429.774 240.773 430.017 240.253C430.26 239.733 430.487 239.196 430.699 238.64C430.912 238.076 431.109 237.502 431.289 236.918C431.47 236.333 431.634 235.732 431.783 235.112C431.939 234.478 432.074 233.832 432.187 233.173C432.3 232.514 432.397 231.848 432.477 231.173C432.555 230.497 432.613 229.815 432.652 229.127C432.69 228.439 432.71 227.746 432.71 227.047C432.707 226.354 432.688 225.663 432.652 224.972C432.616 224.281 432.557 223.599 432.477 222.925C432.399 222.25 432.303 221.584 432.187 220.928C432.072 220.273 431.937 219.624 431.783 218.982C431.633 218.362 431.468 217.759 431.288 217.171C431.107 216.584 430.911 216.013 430.699 215.46C430.488 214.906 430.261 214.37 430.018 213.85C429.775 213.331 429.517 212.831 429.244 212.349C428.97 211.867 428.686 211.409 428.39 210.977C428.095 210.544 427.789 210.139 427.472 209.76C427.164 209.39 426.836 209.037 426.49 208.702C426.16 208.383 425.812 208.084 425.447 207.806C425.089 207.533 424.712 207.286 424.319 207.065C423.946 206.856 423.557 206.675 423.157 206.525C422.769 206.38 422.371 206.267 421.965 206.187C421.563 206.109 421.156 206.064 420.747 206.055" fill="#E4E4E4"/>
    <path d="M420.747 281.153L142.158 301.528C141.398 301.583 140.643 301.686 139.895 301.835C139.141 301.985 138.396 302.182 137.665 302.423C136.919 302.669 136.187 302.959 135.475 303.291C134.741 303.633 134.026 304.016 133.335 304.438C132.648 304.857 131.983 305.31 131.343 305.796C130.694 306.291 130.065 306.82 129.454 307.381C128.843 307.946 128.251 308.547 127.677 309.187C127.103 309.827 126.551 310.501 126.018 311.211C125.486 311.922 124.982 312.659 124.507 313.421C124.031 314.182 123.584 314.967 123.167 315.775C122.75 316.584 122.362 317.415 122.005 318.269C121.648 319.123 121.322 319.998 121.028 320.892C120.723 321.817 120.456 322.754 120.226 323.703C119.997 324.652 119.805 325.609 119.651 326.572C119.5 327.536 119.384 328.508 119.304 329.486C119.224 330.464 119.184 331.446 119.184 332.433C119.187 333.419 119.227 334.394 119.304 335.357C119.381 336.32 119.497 337.268 119.651 338.201C119.806 339.137 119.999 340.055 120.228 340.955C120.458 341.856 120.725 342.738 121.03 343.603C121.325 344.44 121.65 345.249 122.008 346.03C122.365 346.813 122.752 347.566 123.169 348.291C123.586 349.015 124.033 349.711 124.509 350.377C124.98 351.037 125.485 351.673 126.021 352.281C126.543 352.872 127.097 353.435 127.68 353.966C128.244 354.483 128.837 354.968 129.456 355.417C130.062 355.855 130.692 356.257 131.345 356.621C131.989 356.982 132.654 357.303 133.337 357.584C134.034 357.87 134.749 358.112 135.478 358.306C136.197 358.496 136.929 358.64 137.667 358.735C138.407 358.83 139.152 358.877 139.898 358.875C140.654 358.874 141.41 358.825 142.161 358.729L420.747 323.219C421.159 323.166 421.567 323.08 421.965 322.96C422.373 322.837 422.772 322.683 423.157 322.498C423.559 322.305 423.947 322.084 424.318 321.836C424.712 321.574 425.088 321.287 425.446 320.978C425.811 320.662 426.159 320.327 426.489 319.974C426.822 319.613 427.15 319.226 427.471 318.813C427.787 318.401 428.093 317.964 428.389 317.501C428.685 317.039 428.97 316.553 429.243 316.042C429.516 315.535 429.774 315.008 430.017 314.461C430.26 313.913 430.487 313.352 430.699 312.775C430.912 312.197 431.109 311.605 431.289 311C431.47 310.395 431.634 309.775 431.783 309.141C431.939 308.485 432.074 307.822 432.187 307.152C432.3 306.481 432.397 305.806 432.477 305.124C432.555 304.443 432.613 303.757 432.652 303.065C432.69 302.373 432.71 301.678 432.71 300.979C432.706 300.284 432.687 299.594 432.651 298.911C432.614 298.227 432.556 297.552 432.476 296.886C432.399 296.218 432.303 295.56 432.187 294.913C432.072 294.266 431.937 293.631 431.783 293.006C431.634 292.402 431.47 291.815 431.289 291.246C431.111 290.677 430.915 290.126 430.7 289.592C430.486 289.059 430.259 288.544 430.018 288.049C429.773 287.558 429.514 287.084 429.24 286.626C428.967 286.169 428.682 285.74 428.387 285.338C428.101 284.947 427.794 284.571 427.468 284.212C427.16 283.872 426.832 283.55 426.486 283.249C426.156 282.961 425.808 282.696 425.444 282.454C425.084 282.216 424.707 282.004 424.316 281.822C423.941 281.648 423.552 281.504 423.154 281.394C422.372 281.175 421.557 281.094 420.747 281.153" fill="#E4E4E4"/>
    <path d="M268.901 284.886C270.666 287.82 273.447 290.004 276.715 291.023C279.984 292.042 283.513 291.825 286.633 290.414C289.752 289.003 292.245 286.495 293.638 283.368C295.03 280.24 295.226 276.709 294.188 273.447L348.181 162.521L322.336 146.854L275.707 264.679C275.528 264.748 275.353 264.821 275.18 264.897C275.007 264.973 274.835 265.052 274.664 265.135C274.492 265.217 274.322 265.304 274.153 265.396C273.984 265.487 273.816 265.583 273.65 265.683C270.474 267.6 268.19 270.7 267.299 274.3C266.408 277.901 266.984 281.708 268.9 284.885L268.901 284.886Z" fill="#9E616A"/>
    <path d="M337.874 205.295L299.517 195.464C299.517 195.464 300.769 192.633 302.804 187.942C304.84 183.252 307.684 176.712 310.883 169.287C314.082 161.862 317.631 153.565 321.098 145.364C324.565 137.163 327.936 129.06 330.776 122.036C333.615 115.013 336.841 110.807 340.083 108.449C342.767 106.41 346.147 105.511 349.488 105.949C352.086 106.336 354.569 107.281 356.766 108.719C357.806 109.366 358.784 110.109 359.687 110.936L368.581 127.11L337.874 205.295Z" fill="#CCCCCC"/>
    <path d="M30.9018 196.51C29.9729 196.579 29.0485 196.699 28.1331 196.871C27.2118 197.044 26.3008 197.267 25.4043 197.541C24.494 197.819 23.5995 198.146 22.7247 198.52C21.8293 198.904 20.9546 199.334 20.1042 199.808C19.272 200.276 18.4586 200.785 17.6642 201.335C16.8697 201.885 16.0981 202.475 15.3493 203.107C14.6014 203.737 13.8755 204.408 13.1718 205.122C12.468 205.835 11.7899 206.588 11.1375 207.379C10.485 208.17 9.86667 208.99 9.28244 209.838C8.69821 210.686 8.1501 211.56 7.63812 212.46C7.13094 213.361 6.65664 214.287 6.21527 215.237C5.7739 216.187 5.37266 217.159 5.01154 218.154C4.63517 219.185 4.30574 220.227 4.02325 221.28C3.74077 222.332 3.50523 223.394 3.31665 224.465C3.12726 225.535 2.98523 226.613 2.89053 227.698C2.79584 228.783 2.74851 229.872 2.74854 230.966C2.74854 232.06 2.79587 233.14 2.89053 234.205C2.9852 235.271 3.12723 236.32 3.31665 237.353C3.50524 238.386 3.74077 239.4 4.02325 240.396C4.30573 241.392 4.63397 242.368 5.00793 243.323C5.37226 244.245 5.7735 245.137 6.21167 245.999C6.64478 246.852 7.12044 247.683 7.6369 248.488C8.14527 249.278 8.69414 250.042 9.28125 250.775C9.86277 251.504 10.4823 252.202 11.1374 252.866C11.7817 253.519 12.4608 254.136 13.1718 254.715C13.868 255.282 14.5954 255.81 15.3505 256.296C16.8408 257.255 18.4362 258.04 20.1053 258.636C21.8164 259.247 23.5946 259.651 25.4018 259.839C26.3083 259.933 27.2195 259.973 28.1307 259.96C29.0566 259.947 29.9809 259.881 30.8994 259.764C31.826 259.645 32.7455 259.476 33.6535 259.257C34.5643 259.036 35.4624 258.767 36.3439 258.449C37.2354 258.127 38.1094 257.759 38.9621 257.345C39.8309 256.924 40.6778 256.458 41.4996 255.951C42.2997 255.452 43.0789 254.917 43.8372 254.345C44.5956 253.774 45.3303 253.165 46.0413 252.518C46.7523 251.871 47.4389 251.189 48.1009 250.472C48.763 249.754 49.3994 249.002 50.0101 248.214C50.6248 247.426 51.2034 246.615 51.7459 245.781C52.2884 244.946 52.7964 244.089 53.2699 243.211C53.7433 242.332 54.1815 241.433 54.5844 240.513C54.9872 239.594 55.3544 238.655 55.6858 237.696C56.0293 236.705 56.3298 235.704 56.5874 234.695C56.845 233.687 57.0601 232.671 57.2326 231.648C57.4043 230.624 57.5335 229.594 57.6202 228.56C57.7069 227.526 57.7502 226.487 57.7502 225.443C57.7494 224.4 57.7061 223.37 57.6202 222.352C57.5343 221.335 57.4051 220.332 57.2326 219.343C57.0609 218.356 56.8458 217.383 56.5874 216.425C56.329 215.467 56.0285 214.527 55.6858 213.605C55.3528 212.712 54.9856 211.847 54.5844 211.008C54.1775 210.172 53.7373 209.361 53.2639 208.574C52.3265 207.02 51.2365 205.563 50.0101 204.225C49.4082 203.567 48.7726 202.941 48.1058 202.348C47.4491 201.767 46.7616 201.222 46.0462 200.715C45.3376 200.213 44.6018 199.75 43.8421 199.329C43.083 198.909 42.3009 198.531 41.4996 198.198C39.8451 197.509 38.115 197.018 36.3452 196.735C35.4544 196.593 34.5561 196.504 33.6548 196.467C32.7366 196.43 31.817 196.445 30.9006 196.513" fill="#E4E4E4"/>
    <path d="M30.9018 309.663C29.9729 309.731 29.0485 309.852 28.1331 310.024C27.2118 310.196 26.3008 310.42 25.4043 310.693C24.494 310.971 23.5995 311.298 22.7247 311.673C21.8293 312.056 20.9546 312.486 20.1042 312.961C19.272 313.429 18.4586 313.937 17.6642 314.487C16.8697 315.037 16.0981 315.627 15.3493 316.259C14.6014 316.889 13.8755 317.561 13.1718 318.274C12.468 318.988 11.7899 319.74 11.1375 320.531C10.485 321.322 9.86667 322.142 9.28244 322.99C8.69821 323.839 8.1501 324.713 7.63812 325.612C7.13094 326.513 6.65664 327.439 6.21527 328.389C5.7739 329.339 5.37266 330.312 5.01154 331.306C4.63517 332.337 4.30574 333.379 4.02325 334.432C3.74077 335.485 3.50523 336.547 3.31665 337.617C3.12726 338.688 2.98523 339.765 2.89053 340.85C2.79584 341.935 2.74851 343.025 2.74854 344.119C2.74854 345.212 2.79587 346.292 2.89053 347.358C2.9852 348.424 3.12723 349.473 3.31665 350.506C3.50524 351.538 3.74077 352.553 4.02325 353.549C4.30573 354.545 4.63397 355.52 5.00793 356.475C5.37226 357.397 5.7735 358.289 6.21167 359.151C6.64478 360.004 7.12044 360.835 7.6369 361.64C8.14527 362.43 8.69414 363.194 9.28125 363.927C9.86277 364.657 10.4823 365.355 11.1374 366.018C11.7817 366.671 12.4608 367.288 13.1718 367.867C13.868 368.434 14.5954 368.962 15.3505 369.448C16.8408 370.407 18.4362 371.192 20.1053 371.788C21.8164 372.399 23.5946 372.803 25.4018 372.992C26.3083 373.085 27.2195 373.125 28.1307 373.112C29.0566 373.099 29.9809 373.034 30.8994 372.916C31.826 372.798 32.7455 372.629 33.6535 372.409C34.5643 372.189 35.4624 371.919 36.3439 371.601C37.2354 371.28 38.1094 370.911 38.9621 370.498C39.8309 370.076 40.6778 369.611 41.4996 369.104C42.2997 368.604 43.0789 368.069 43.8372 367.498C44.5956 366.926 45.3303 366.317 46.0413 365.671C46.7523 365.024 47.4389 364.342 48.1009 363.624C48.763 362.907 49.3994 362.154 50.0101 361.366C50.6248 360.579 51.2034 359.768 51.7459 358.933C52.2884 358.099 52.7964 357.242 53.2699 356.363C53.7433 355.484 54.1815 354.585 54.5844 353.665C54.9872 352.746 55.3544 351.807 55.6858 350.849C56.0293 349.857 56.3298 348.857 56.5874 347.848C56.845 346.839 57.0601 345.823 57.2326 344.8C57.4043 343.776 57.5335 342.747 57.6202 341.712C57.7069 340.678 57.7502 339.639 57.7502 338.596C57.7494 337.553 57.7061 336.522 57.6202 335.505C57.5343 334.487 57.4051 333.484 57.2326 332.495C57.0609 331.508 56.8458 330.535 56.5874 329.577C56.329 328.619 56.0285 327.679 55.6858 326.757C55.3528 325.865 54.9856 324.999 54.5844 324.16C54.1775 323.324 53.7373 322.513 53.2639 321.726C52.3265 320.172 51.2365 318.715 50.0101 317.377C49.4082 316.719 48.7726 316.093 48.1058 315.501C47.4491 314.92 46.7616 314.374 46.0462 313.867C45.3376 313.365 44.6018 312.902 43.8421 312.482C43.083 312.061 42.3009 311.683 41.4996 311.35C39.8452 310.661 38.115 310.17 36.3452 309.888C35.4544 309.746 34.5561 309.656 33.6548 309.619C32.7366 309.582 31.817 309.597 30.9006 309.665" fill="#E4E4E4"/>
    <path d="M30.9068 73.93C29.983 73.9075 29.0586 73.9377 28.1382 74.0203C27.2216 74.1027 26.3105 74.2377 25.4093 74.4248C24.5031 74.6141 23.6084 74.8553 22.7298 75.147C21.8376 75.4424 20.9627 75.7876 20.1092 76.181C19.2738 76.5658 18.4594 76.9946 17.6692 77.4654C16.8713 77.9409 16.0987 78.4576 15.3544 79.0134C14.5982 79.5781 13.871 80.1808 13.1756 80.819C12.4686 81.4682 11.7893 82.1564 11.1377 82.8834C10.4853 83.6113 9.86693 84.3713 9.2827 85.1634C8.69847 85.9554 8.15036 86.7764 7.63838 87.6262C7.12879 88.4873 6.6533 89.3696 6.21193 90.2732C5.77056 91.1768 5.36933 92.1101 5.00819 93.0731C4.63423 94.0658 4.306 95.0749 4.02351 96.1006C3.74103 97.1262 3.50549 98.165 3.31691 99.2171C3.12752 100.272 2.98549 101.336 2.89079 102.409C2.7961 103.482 2.74877 104.566 2.74879 105.66C2.74879 106.752 2.79613 107.835 2.89079 108.91C2.98546 109.984 3.12749 111.047 3.31691 112.098C3.5055 113.15 3.74103 114.187 4.02351 115.21C4.30599 116.233 4.63423 117.24 5.00819 118.231C5.37252 119.189 5.77376 120.12 6.21193 121.024C6.65331 121.925 7.12997 122.8 7.64192 123.647C8.15387 124.495 8.70201 125.312 9.28627 126.099C9.86969 126.889 10.488 127.645 11.1412 128.367C11.7945 129.089 12.4726 129.771 13.1756 130.413C13.8673 131.049 14.5908 131.649 15.3435 132.212C16.0879 132.763 16.8605 133.274 17.6583 133.744C18.4486 134.21 19.2631 134.634 20.0983 135.013C20.952 135.401 21.827 135.741 22.7189 136.03C24.4741 136.598 26.2889 136.962 28.1273 137.113C29.9683 137.266 31.8206 137.21 33.6489 136.946C34.5554 136.815 35.4536 136.633 36.3393 136.4C37.2273 136.166 38.1014 135.882 38.9575 135.55C39.8236 135.214 40.6707 134.831 41.495 134.403C42.2988 133.985 43.0806 133.527 43.8375 133.029C44.5987 132.528 45.3343 131.99 46.0415 131.415C46.7526 130.837 47.4391 130.222 48.1012 129.568C48.7632 128.915 49.3996 128.224 50.0103 127.496C50.625 126.767 51.2036 126.012 51.7461 125.23C52.2886 124.448 52.7966 123.641 53.2701 122.808C53.7452 121.975 54.1833 121.118 54.5846 120.238C54.9858 119.358 55.353 118.456 55.686 117.533C56.0295 116.575 56.33 115.604 56.5876 114.62C56.8452 113.636 57.0603 112.641 57.2328 111.635C57.4046 110.625 57.5338 109.606 57.6204 108.58C57.7071 107.553 57.7504 106.519 57.7504 105.475C57.7496 104.433 57.7063 103.398 57.6204 102.372C57.5346 101.346 57.4054 100.33 57.2328 99.3254C57.0611 98.3199 56.846 97.3256 56.5876 96.3425C56.3292 95.3595 56.0287 94.39 55.686 93.4343C55.353 92.5106 54.9858 91.6098 54.5846 90.7319C54.1833 89.8539 53.7432 88.9989 53.2641 88.1667C52.7906 87.3417 52.2826 86.5392 51.7401 85.7592C51.1975 84.9791 50.621 84.228 50.0103 83.5057C49.4036 82.7843 48.7689 82.0986 48.106 81.4485C47.4431 80.7985 46.7565 80.1874 46.0463 79.6152C45.3395 79.044 44.6043 78.5088 43.8435 78.0118C43.0865 77.5189 42.3047 77.0653 41.501 76.6528C40.6765 76.2294 39.8294 75.8517 38.9635 75.5213C38.1071 75.1946 37.233 74.9165 36.3454 74.6883C35.4594 74.4608 34.5611 74.2839 33.655 74.1587C32.7418 74.0328 31.8223 73.9589 30.9008 73.9372M30.9008 70.9254C34.9445 71.0361 38.9104 72.0626 42.5001 73.9275C46.0673 75.7928 49.2292 78.3471 51.8027 81.4425C54.4928 84.6684 56.5878 88.347 57.9899 92.3064C60.9928 100.829 60.9928 110.121 57.9899 118.643C56.5863 122.614 54.4917 126.305 51.8027 129.547C49.2288 132.657 46.0674 135.229 42.4989 137.117C38.9139 139.004 34.9486 140.057 30.8996 140.195C26.8256 140.329 22.7756 139.521 19.0643 137.836C15.3176 136.12 11.9658 133.648 9.21886 130.576C6.30188 127.323 4.01887 123.553 2.4875 119.461C-0.829167 110.552 -0.829167 100.747 2.4875 91.8381C4.02037 87.7335 6.30293 83.9497 9.21886 80.6794C11.9649 77.5902 15.3159 75.0975 19.0643 73.3558C22.7728 71.6464 26.8248 70.8132 30.9068 70.9206L30.9008 70.9254Z" fill="#3662E3"/>
    <path d="M30.9043 114.074L21.4224 94.3203L23.6734 92.8541L31.4833 109.082L64.2758 70.5378L66.2608 72.6528L30.9043 114.074Z" fill="#3662E3"/>
    <path d="M375.99 504.061L352.517 503.969L360.086 565.304L375.99 565.383V504.061Z" fill="#9E616A"/>
    <path d="M380.046 580.816L328.792 580.546V579.898C328.792 578.583 328.92 577.27 329.175 575.98C329.679 573.434 330.684 571.014 332.13 568.86C333.6 566.676 335.483 564.802 337.674 563.344C339.835 561.907 342.26 560.913 344.808 560.42C346.1 560.172 347.413 560.051 348.729 560.059V560.059L380.046 560.213V580.816Z" fill="#2F2E41"/>
    <path d="M300.831 503.769L277.426 503.678L284.971 564.929L300.831 565.009V503.769Z" fill="#9E616A"/>
    <path d="M304.876 580.418L253.758 580.15V579.502C253.757 578.189 253.886 576.878 254.141 575.59C254.643 573.048 255.645 570.631 257.087 568.479C258.552 566.298 260.431 564.426 262.617 562.969C264.773 561.534 267.192 560.543 269.734 560.052C271.023 559.804 272.333 559.683 273.645 559.691V559.691L304.876 559.844V580.418Z" fill="#2F2E41"/>
    <path d="M299.838 253.079L260.479 399.963L274.885 540.762L306.784 541.642L299.839 414.508L339.633 351.063L348.264 542.507L377.2 540.461L393.297 375.858C398.764 363.005 402.773 349.58 405.25 335.834C407.196 325.045 408.143 314.098 408.077 303.135C408.044 295.754 407.477 288.385 406.38 281.085C405.988 278.365 405.457 275.667 404.79 273.001L393.055 261.104L299.838 253.079Z" fill="#2F2E41"/>
    <path d="M351.985 277.645C345.366 277.645 339.156 277.433 333.524 277.014C327.771 276.619 322.048 275.866 316.389 274.758C311.571 273.858 306.879 272.381 302.414 270.358C298.82 268.806 295.695 266.34 293.35 263.205L293.082 262.814L303.84 192.801L315.441 114.08C316.204 108.87 318.857 104.123 322.893 100.743C326.93 97.3623 332.068 95.584 337.331 95.7466L373.664 96.8598C376.389 96.9434 379.069 97.5731 381.545 98.7117C384.022 99.8503 386.245 101.474 388.082 103.488C389.92 105.502 391.334 107.864 392.242 110.434C393.149 113.004 393.531 115.731 393.366 118.452L388.596 196.741L406.189 273.965L404.943 274.139C404.442 274.206 402.511 274.46 399.487 274.801C395.534 275.245 391.497 275.645 387.49 275.991C381.82 276.48 376.271 276.864 370.999 277.134C364.312 277.475 357.904 277.64 351.985 277.645Z" fill="#CCCCCC"/>
    <path d="M331.823 81.8351C331.814 81.8351 331.804 81.8351 331.794 81.8351C331.032 81.8346 330.277 81.684 329.573 81.3919C328.869 81.0997 328.23 80.6718 327.691 80.1324C327.153 79.5931 326.725 78.9529 326.434 78.2485C326.143 77.5441 325.993 76.7892 325.994 76.027V43.6341C325.988 37.8306 327.149 32.0852 329.409 26.7395C333.833 16.3076 342.112 7.98539 352.521 3.50718C359.104 0.683572 366.284 -0.463315 373.42 0.169216C380.555 0.801746 387.422 3.19394 393.405 7.1316C399.389 11.0693 404.303 16.4295 407.707 22.7322C411.11 29.0349 412.898 36.0834 412.909 43.2465V75.6888C412.91 76.4695 412.754 77.2424 412.449 77.9614C411.853 79.364 410.738 80.4819 409.336 81.0816C408.617 81.3884 407.844 81.5477 407.063 81.5498L331.819 81.8351H331.823Z" fill="#2F2E41"/>
    <path d="M389.074 32.5247C392.104 38.0605 393.427 44.3703 392.874 50.6572C392.321 56.9441 389.917 62.9261 385.966 67.8478C382.015 72.7694 376.695 76.4098 370.676 78.3093C364.658 80.2087 358.211 80.2821 352.151 78.52C348.138 77.3668 344.394 75.4288 341.135 72.8183C337.877 70.2077 335.169 66.9765 333.168 63.3118C330.144 57.7785 328.827 51.4737 329.381 45.1926C329.936 38.9114 332.337 32.9351 336.284 28.017C340.23 23.0989 345.544 19.4594 351.556 17.5573C357.568 15.6551 364.008 15.5756 370.065 17.3286C374.082 18.4775 377.83 20.4125 381.093 23.0213C384.356 25.6301 387.069 28.8608 389.074 32.526V32.5247Z" fill="#9E616A"/>
    <path d="M315.72 46.2703C315.716 41.6804 316.634 37.1365 318.421 32.9087C321.919 24.6597 328.466 18.0793 336.697 14.5395C340.921 12.73 345.465 11.7885 350.059 11.7709L356.542 11.7384C356.615 11.7379 356.688 11.7378 356.761 11.7378C361.25 11.7406 365.695 12.6276 369.842 14.3481C373.989 16.0687 377.756 18.5892 380.928 21.7657C384.101 24.9421 386.617 28.7124 388.332 32.8611C390.048 37.0099 390.929 41.4559 390.926 45.9453V46.5941L377.211 46.6495L372.534 33.584L371.599 46.6747L364.515 46.706L362.157 40.1143L361.684 46.7145L315.726 46.9203L315.72 46.2703Z" fill="#2F2E41"/>
    <path d="M260.504 114.415C258.393 114.931 256.42 115.898 254.719 117.25C253.389 118.302 252.252 119.576 251.359 121.017C249.597 123.868 248.821 127.218 249.149 130.554C249.315 132.239 249.772 133.882 250.5 135.411C251.397 137.316 252.688 139.009 254.288 140.378C255.888 141.748 257.76 142.762 259.78 143.355C261.801 143.947 263.924 144.105 266.01 143.816C268.096 143.528 270.097 142.8 271.881 141.681C272.013 141.597 272.143 141.51 272.272 141.423C272.401 141.336 272.527 141.246 272.652 141.155C272.777 141.064 272.9 140.972 273.021 140.878C273.141 140.784 273.261 140.688 273.38 140.592L349.063 167.528C351.392 168.356 353.927 168.405 356.286 167.668C358.645 166.932 360.701 165.448 362.144 163.442L380.087 138.599L358.394 123.991L347.01 136.923L277.748 123.145C277.672 122.966 277.594 122.787 277.513 122.61C277.432 122.432 277.347 122.255 277.259 122.079C277.17 121.903 277.078 121.729 276.983 121.555C276.888 121.381 276.787 121.208 276.682 121.037C275.029 118.367 272.574 116.289 269.668 115.099C266.762 113.91 263.554 113.67 260.504 114.415Z" fill="#9E616A"/>
    <path d="M348.231 128.768C350.495 125.942 353.661 122.274 356.877 118.635C360.093 114.997 363.356 111.391 365.818 108.693C368.28 105.995 369.937 104.207 369.937 104.207C372.209 100.771 375.601 98.228 379.536 97.0092C383.47 95.7904 387.706 95.9713 391.522 97.5212C395.339 99.071 398.501 101.894 400.473 105.511C402.444 109.128 403.102 113.316 402.335 117.364C401.897 119.694 400.993 121.911 399.676 123.882C399.676 123.882 397.206 127.113 393.479 131.936C389.752 136.759 384.766 143.179 379.736 149.561C374.706 155.943 369.627 162.293 365.711 166.98C361.794 171.666 359.038 174.694 358.65 174.435L344.99 133.83C344.602 133.57 345.967 131.593 348.231 128.768Z" fill="#CCCCCC"/>
    <path d="M356.339 80.8144C356.124 81.8615 356.208 82.948 356.58 83.9501C356.767 84.463 357.024 84.9472 357.345 85.3886C357.62 85.7647 357.939 86.1069 358.294 86.4082C359.346 87.2976 360.681 87.7828 362.059 87.7768C362.145 87.776 362.231 87.7736 362.317 87.7696C362.403 87.7656 362.489 87.7596 362.575 87.7516C362.661 87.7443 362.747 87.7347 362.833 87.7227C362.919 87.7106 363.006 87.697 363.092 87.6817L367.96 86.797L374.665 72.4724V85.5932L396.797 81.6088V25.9294L359.694 26.1076L360.611 27.1729C363.656 30.7475 365.655 35.0927 366.389 39.7304C367.109 44.4278 367.019 49.2137 366.122 53.8805C365.25 58.6026 363.927 63.2302 362.171 67.6995C360.636 71.6588 358.874 75.5265 356.894 79.2831C356.638 79.7651 356.452 80.2805 356.339 80.8144V80.8144Z" fill="#2F2E41"/>
    </g>
    <defs>
    <clipPath id="clip0_239_8783">
    <rect width="559.174" height="582.5" fill="white"/>
    </clipPath>
    </defs>
    </svg>
    