<svg width="269" height="157" viewBox="0 0 269 157" fill="none" xmlns="http://www.w3.org/2000/svg">
    <path fill-rule="evenodd" clip-rule="evenodd" d="M224.373 131.976C235.213 131.976 244 123.189 244 112.349C244 101.509 235.213 92.7221 224.373 92.7221C221.153 92.7221 218.114 93.4975 215.433 94.8718C213.106 96.0642 210.168 96.0223 208.319 94.1739L191.51 77.3642C189.757 75.6114 189.623 72.86 190.63 70.5951C191.713 68.1602 192.315 65.464 192.315 62.6272C192.315 51.7874 183.528 43 172.688 43C161.848 43 153.061 51.7874 153.061 62.6272C153.061 65.3866 153.63 68.013 154.658 70.3953C155.63 72.6466 155.479 75.3611 153.745 77.0948L137.103 93.7367C135.319 95.5213 132.505 95.6255 130.219 94.5573C127.698 93.3798 124.886 92.7221 121.921 92.7221C118.65 92.7221 115.566 93.5222 112.854 94.9373C110.52 96.1551 107.556 96.1263 105.695 94.265L89.2395 77.8098C87.4549 76.0252 87.3507 73.2117 88.419 70.9251C89.5965 68.4047 90.2542 65.5927 90.2542 62.6272C90.2542 51.7874 81.4669 43 70.6271 43C59.7874 43 51 51.7874 51 62.6272C51 73.4669 59.7874 82.2543 70.6271 82.2543C73.8472 82.2543 76.8861 81.4788 79.5674 80.1045C81.8937 78.9121 84.8324 78.9541 86.6808 80.8025L103.223 97.3451C104.995 99.1169 105.111 101.905 104.068 104.183C102.929 106.67 102.294 109.435 102.294 112.349C102.294 123.189 111.081 131.976 121.921 131.976C132.76 131.976 141.548 123.189 141.548 112.349C141.548 109.129 140.772 106.09 139.398 103.409C138.206 101.083 138.248 98.1438 140.096 96.2954L155.956 80.4351C157.856 78.5355 160.896 78.5468 163.25 79.8404C166.051 81.3791 169.267 82.2543 172.688 82.2543C176.034 82.2543 179.185 81.417 181.941 79.9404C184.286 78.6849 187.288 78.6939 189.168 80.5743L205.76 97.1665C207.545 98.9511 207.649 101.765 206.581 104.051C205.403 106.572 204.746 109.384 204.746 112.349C204.746 123.189 213.533 131.976 224.373 131.976Z" fill="url(#paint0_linear_0_1)"/>
    <path fill-rule="evenodd" clip-rule="evenodd" d="M164.476 116.194C165.69 117.408 165.885 119.27 165.885 120.986C165.885 124.6 168.814 127.529 172.427 127.529C176.04 127.529 178.969 124.6 178.969 120.986C178.969 119.22 179.154 117.298 180.403 116.049L217.014 79.4382C218.617 77.835 221.19 77.8068 223.458 77.8068C227.071 77.8068 230 74.8776 230 71.2644C230 67.6511 227.071 64.722 223.458 64.722C219.844 64.722 216.915 67.6511 216.915 71.2644C216.915 73.4441 216.852 75.8992 215.311 77.4405L180.003 112.749C178.148 114.604 175.05 114.444 172.427 114.444C169.779 114.444 166.617 114.634 164.744 112.762L128.815 76.8322C127.416 75.4333 127.285 73.2427 127.285 71.2644C127.285 68.9817 127.306 66.3873 128.921 64.7732L163.973 29.7205C165.587 28.1064 168.182 28.0847 170.464 28.0847C174.078 28.0847 177.007 25.1556 177.007 21.5424C177.007 17.9291 174.078 15 170.464 15C166.851 15 163.922 17.9291 163.922 21.5424C163.922 23.7062 163.853 26.14 162.323 27.6701L126.87 63.1227C125.34 64.6528 122.906 64.722 120.742 64.722C118.764 64.722 116.573 64.5908 115.175 63.1919L79.0929 27.1103C77.694 25.7114 77.5628 23.5207 77.5628 21.5424C77.5628 17.9291 74.6336 15 71.0204 15C67.4071 15 64.478 17.9291 64.478 21.5424C64.478 23.1997 64.2725 24.989 63.1006 26.1609L26.7369 62.5246C25.4266 63.8349 23.3953 64 21.5424 64C17.9291 64 15 66.9291 15 70.5424C15 74.1556 17.9291 77.0847 21.5424 77.0847C25.1556 77.0847 28.0847 74.1556 28.0847 70.5424C28.0847 67.9813 27.97 64.9924 29.7809 63.1815L63.2115 29.7509C65.1051 27.8573 68.276 28.0577 70.9538 28.0844C70.976 28.0846 70.9982 28.0847 71.0204 28.0847C73.4745 28.0847 76.3085 28.0268 78.0438 29.7621L112.523 64.2409C114.258 65.9762 114.2 68.8103 114.2 71.2644C114.2 73.4283 114.131 75.862 112.601 77.3921L77.2489 112.744C75.4002 114.593 72.3263 114.444 69.7119 114.444C66.0986 114.444 63.1695 117.373 63.1695 120.986C63.1695 124.6 66.0986 127.529 69.7119 127.529C73.3251 127.529 76.2542 124.6 76.2542 120.986C76.2542 119.203 76.4354 117.258 77.6966 115.997L114.251 79.4426C115.865 77.8285 118.46 77.8068 120.742 77.8068C123.196 77.8068 126.031 77.7488 127.766 79.4841L164.476 116.194Z" fill="url(#paint1_linear_0_1)"/>
    <g filter="url(#filter0_d_0_1)">
    <path fill-rule="evenodd" clip-rule="evenodd" d="M224.373 131.976C235.213 131.976 244 123.189 244 112.349C244 101.509 235.213 92.7221 224.373 92.7221C221.153 92.7221 218.114 93.4975 215.433 94.8718C213.106 96.0642 210.168 96.0223 208.319 94.1739L191.51 77.3642C189.757 75.6114 189.623 72.86 190.63 70.5951C191.713 68.1602 192.315 65.464 192.315 62.6272C192.315 51.7874 183.528 43 172.688 43C161.848 43 153.061 51.7874 153.061 62.6272C153.061 65.3866 153.63 68.013 154.658 70.3953C155.63 72.6466 155.479 75.3611 153.745 77.0948L137.103 93.7367C135.319 95.5213 132.505 95.6255 130.219 94.5573C127.698 93.3798 124.886 92.7221 121.921 92.7221C118.65 92.7221 115.566 93.5222 112.854 94.9373C110.52 96.1551 107.556 96.1263 105.695 94.265L89.2395 77.8098C87.4549 76.0252 87.3507 73.2117 88.419 70.9251C89.5965 68.4047 90.2542 65.5927 90.2542 62.6272C90.2542 51.7874 81.4669 43 70.6271 43C59.7874 43 51 51.7874 51 62.6272C51 73.4669 59.7874 82.2543 70.6271 82.2543C73.8472 82.2543 76.8861 81.4788 79.5674 80.1045C81.8937 78.9121 84.8324 78.9541 86.6808 80.8025L103.223 97.3451C104.995 99.1169 105.111 101.905 104.068 104.183C102.929 106.67 102.294 109.435 102.294 112.349C102.294 123.189 111.081 131.976 121.921 131.976C132.76 131.976 141.548 123.189 141.548 112.349C141.548 109.129 140.772 106.09 139.398 103.409C138.206 101.083 138.248 98.1438 140.096 96.2954L155.956 80.4351C157.856 78.5355 160.896 78.5468 163.25 79.8404C166.051 81.3791 169.267 82.2543 172.688 82.2543C176.034 82.2543 179.185 81.417 181.941 79.9404C184.286 78.6849 187.288 78.6939 189.168 80.5743L205.76 97.1665C207.545 98.9511 207.649 101.765 206.581 104.051C205.403 106.572 204.746 109.384 204.746 112.349C204.746 123.189 213.533 131.976 224.373 131.976Z" fill="url(#paint2_linear_0_1)"/>
    </g>
    <g filter="url(#filter1_d_0_1)">
    <path fill-rule="evenodd" clip-rule="evenodd" d="M164.476 116.194C165.69 117.408 165.885 119.27 165.885 120.986C165.885 124.6 168.814 127.529 172.427 127.529C176.04 127.529 178.969 124.6 178.969 120.986C178.969 119.22 179.154 117.298 180.403 116.049L217.014 79.4382C218.617 77.835 221.19 77.8068 223.458 77.8068C227.071 77.8068 230 74.8776 230 71.2644C230 67.6511 227.071 64.722 223.458 64.722C219.844 64.722 216.915 67.6511 216.915 71.2644C216.915 73.4441 216.852 75.8992 215.311 77.4405L180.003 112.749C178.148 114.604 175.05 114.444 172.427 114.444C169.779 114.444 166.617 114.634 164.744 112.762L128.815 76.8322C127.416 75.4333 127.285 73.2427 127.285 71.2644C127.285 68.9817 127.306 66.3873 128.921 64.7732L163.973 29.7205C165.587 28.1064 168.182 28.0847 170.464 28.0847C174.078 28.0847 177.007 25.1556 177.007 21.5424C177.007 17.9291 174.078 15 170.464 15C166.851 15 163.922 17.9291 163.922 21.5424C163.922 23.7062 163.853 26.14 162.323 27.6701L126.87 63.1227C125.34 64.6528 122.906 64.722 120.742 64.722C118.764 64.722 116.573 64.5908 115.175 63.1919L79.0929 27.1103C77.694 25.7114 77.5628 23.5207 77.5628 21.5424C77.5628 17.9291 74.6336 15 71.0204 15C67.4071 15 64.478 17.9291 64.478 21.5424C64.478 23.1997 64.2725 24.989 63.1006 26.1609L26.7369 62.5246C25.4266 63.8349 23.3953 64 21.5424 64C17.9291 64 15 66.9291 15 70.5424C15 74.1556 17.9291 77.0847 21.5424 77.0847C25.1556 77.0847 28.0847 74.1556 28.0847 70.5424C28.0847 67.9813 27.97 64.9924 29.7809 63.1815L63.2115 29.7509C65.1051 27.8573 68.276 28.0577 70.9538 28.0844C70.976 28.0846 70.9982 28.0847 71.0204 28.0847C73.4745 28.0847 76.3085 28.0268 78.0438 29.7621L112.523 64.2409C114.258 65.9762 114.2 68.8103 114.2 71.2644C114.2 73.4283 114.131 75.862 112.601 77.3921L77.2489 112.744C75.4002 114.593 72.3263 114.444 69.7119 114.444C66.0986 114.444 63.1695 117.373 63.1695 120.986C63.1695 124.6 66.0986 127.529 69.7119 127.529C73.3251 127.529 76.2542 124.6 76.2542 120.986C76.2542 119.203 76.4354 117.258 77.6966 115.997L114.251 79.4426C115.865 77.8285 118.46 77.8068 120.742 77.8068C123.196 77.8068 126.031 77.7488 127.766 79.4841L164.476 116.194Z" fill="url(#paint3_linear_0_1)" fill-opacity="0.1" shape-rendering="crispEdges"/>
    </g>
    <defs>
    <filter id="filter0_d_0_1" x="36" y="28" width="233" height="128.976" filterUnits="userSpaceOnUse" color-interpolation-filters="sRGB">
    <feFlood flood-opacity="0" result="BackgroundImageFix"/>
    <feColorMatrix in="SourceAlpha" type="matrix" values="0 0 0 0 0 0 0 0 0 0 0 0 0 0 0 0 0 0 127 0" result="hardAlpha"/>
    <feOffset dx="5" dy="5"/>
    <feGaussianBlur stdDeviation="10"/>
    <feComposite in2="hardAlpha" operator="out"/>
    <feColorMatrix type="matrix" values="0 0 0 0 0.85098 0 0 0 0 0.85098 0 0 0 0 0.85098 0 0 0 0.2 0"/>
    <feBlend mode="normal" in2="BackgroundImageFix" result="effect1_dropShadow_0_1"/>
    <feBlend mode="normal" in="SourceGraphic" in2="effect1_dropShadow_0_1" result="shape"/>
    </filter>
    <filter id="filter1_d_0_1" x="0" y="-3.05176e-05" width="255" height="152.529" filterUnits="userSpaceOnUse" color-interpolation-filters="sRGB">
    <feFlood flood-opacity="0" result="BackgroundImageFix"/>
    <feColorMatrix in="SourceAlpha" type="matrix" values="0 0 0 0 0 0 0 0 0 0 0 0 0 0 0 0 0 0 127 0" result="hardAlpha"/>
    <feOffset dx="5" dy="5"/>
    <feGaussianBlur stdDeviation="10"/>
    <feComposite in2="hardAlpha" operator="out"/>
    <feColorMatrix type="matrix" values="0 0 0 0 0.85098 0 0 0 0 0.85098 0 0 0 0 0.85098 0 0 0 0.2 0"/>
    <feBlend mode="normal" in2="BackgroundImageFix" result="effect1_dropShadow_0_1"/>
    <feBlend mode="normal" in="SourceGraphic" in2="effect1_dropShadow_0_1" result="shape"/>
    </filter>
    <linearGradient id="paint0_linear_0_1" x1="147.5" y1="131.976" x2="147.5" y2="43.0001" gradientUnits="userSpaceOnUse">
    <stop stop-color="#232323"/>
    <stop offset="1" stop-color="#3662E3"/>
    </linearGradient>
    <linearGradient id="paint1_linear_0_1" x1="122.5" y1="127.529" x2="122.5" y2="15" gradientUnits="userSpaceOnUse">
    <stop stop-color="#3662E3" stop-opacity="0.7"/>
    <stop offset="1" stop-color="#1A2151" stop-opacity="0.7"/>
    </linearGradient>
    <linearGradient id="paint2_linear_0_1" x1="147.5" y1="131.976" x2="147.5" y2="43.0001" gradientUnits="userSpaceOnUse">
    <stop stop-color="#232323"/>
    <stop offset="1" stop-color="#3662E3"/>
    </linearGradient>
    <linearGradient id="paint3_linear_0_1" x1="122.5" y1="127.529" x2="122.5" y2="15" gradientUnits="userSpaceOnUse">
    <stop stop-color="#3662E3" stop-opacity="0.7"/>
    <stop offset="1" stop-color="#1A2151" stop-opacity="0.7"/>
    </linearGradient>
    </defs>
    </svg>
    