<svg width="831" height="424" viewBox="0 0 831 424" fill="none" xmlns="http://www.w3.org/2000/svg">
    <path fill-rule="evenodd" clip-rule="evenodd" d="M458.693 352.858C458.693 392.149 426.842 424 387.551 424C348.261 424 316.41 392.149 316.41 352.858C316.41 338.196 320.845 324.569 328.448 313.248C329.845 311.168 329.675 308.368 327.903 306.596L251.219 229.913C249.371 228.064 246.421 227.968 244.331 229.538C232.438 238.477 217.653 243.774 201.629 243.774C162.339 243.774 130.488 211.923 130.488 172.633C130.488 133.342 162.339 101.491 201.629 101.491C240.92 101.491 272.771 133.342 272.771 172.633C272.771 187.524 268.196 201.346 260.374 212.771C258.949 214.854 259.107 217.678 260.892 219.463L337.419 295.99C339.28 297.852 342.255 297.935 344.345 296.335C356.323 287.165 371.301 281.716 387.551 281.716C402.442 281.716 416.265 286.292 427.69 294.113C429.772 295.539 432.597 295.38 434.381 293.596L510.798 217.18C512.531 215.446 512.735 212.721 511.423 210.649C504.457 199.652 500.424 186.613 500.424 172.633C500.424 133.342 532.276 101.491 571.566 101.491C610.857 101.491 642.708 133.342 642.708 172.633C642.708 186.954 638.476 200.288 631.194 211.451C629.84 213.527 630.027 216.289 631.78 218.042L709.316 295.578C711.165 297.427 714.114 297.523 716.204 295.953C728.097 287.014 742.883 281.716 758.906 281.716C798.197 281.716 830.048 313.568 830.048 352.858C830.048 392.149 798.197 424 758.906 424C719.616 424 687.765 392.149 687.765 352.858C687.764 337.967 692.34 324.144 700.161 312.719C701.587 310.637 701.429 307.812 699.644 306.028L622.497 228.881C620.616 227 617.604 226.937 615.514 228.581C603.415 238.097 588.154 243.774 571.566 243.774C554.643 243.774 539.099 237.865 526.887 227.997C524.797 226.309 521.747 226.352 519.847 228.252L444.831 303.268C442.983 305.117 442.886 308.066 444.457 310.156C453.396 322.049 458.693 336.835 458.693 352.858Z" fill="url(#paint0_linear_0_1)"/>
    <path fill-rule="evenodd" clip-rule="evenodd" d="M546.652 371.646C548.14 373.134 548.485 375.383 547.886 377.4C547.249 379.544 546.907 381.815 546.907 384.165C546.907 397.262 557.524 407.879 570.621 407.879C583.718 407.879 594.335 397.262 594.335 384.165C594.335 381.718 593.964 379.357 593.276 377.136C592.645 375.102 592.98 372.82 594.486 371.314L739.322 226.478C741.021 224.779 743.668 224.585 745.859 225.572C748.828 226.909 752.121 227.654 755.589 227.654C768.686 227.654 779.303 217.036 779.303 203.94C779.303 190.843 768.686 180.226 755.589 180.226C742.492 180.226 731.875 190.843 731.875 203.94C731.875 207.223 732.542 210.351 733.749 213.195C734.668 215.36 734.445 217.941 732.781 219.604L589.438 362.947C587.583 364.802 584.632 364.852 582.353 363.552C578.893 361.579 574.889 360.451 570.621 360.451C566.264 360.451 562.182 361.626 558.674 363.676C556.387 365.012 553.401 364.981 551.528 363.108L406.647 218.227C405.061 216.642 404.779 214.211 405.551 212.106C406.485 209.56 406.995 206.809 406.995 203.94C406.995 200.439 406.236 197.116 404.875 194.125C403.876 191.931 404.065 189.271 405.77 187.565L547.132 46.2031C548.837 44.4979 551.497 44.309 553.692 45.3081C556.683 46.6695 560.006 47.4278 563.506 47.4278C576.603 47.4278 587.22 36.8108 587.22 23.7139C587.22 10.6171 576.603 3.62721e-05 563.506 3.7417e-05C550.409 3.8562e-05 539.792 10.6171 539.792 23.7139C539.792 26.9644 540.446 30.0621 541.63 32.8826C542.537 35.044 542.309 37.6121 540.651 39.2695L398.836 181.085C397.179 182.742 394.611 182.97 392.449 182.063C389.629 180.88 386.531 180.226 383.281 180.226C380.411 180.226 377.661 180.736 375.115 181.669C373.01 182.441 370.579 182.159 368.994 180.574L226.421 38.0013C224.836 36.416 224.554 33.9852 225.326 31.8804C226.26 29.3344 226.769 26.5837 226.769 23.7139C226.769 10.6171 216.152 3.72661e-05 203.055 3.84111e-05C189.959 3.9556e-05 179.341 10.6171 179.341 23.7139C179.341 25.9499 179.651 28.1136 180.229 30.1646C180.792 32.1611 180.434 34.3694 178.967 35.8362L37.1521 177.652C35.614 179.19 33.2722 179.504 31.2082 178.817C28.8527 178.033 26.3331 177.609 23.7143 177.609C10.6175 177.609 0.000387567 188.226 0.000388712 201.323C0.000389857 214.419 10.6175 225.036 23.7143 225.036C36.8111 225.036 47.4282 214.419 47.4282 201.323C47.4282 197.214 46.3834 193.35 44.5451 189.981C43.3099 187.717 43.3911 184.827 45.2145 183.004L183.64 44.5779C185.534 42.6844 188.562 42.6746 190.857 44.054C194.421 46.196 198.594 47.4278 203.055 47.4278C206.926 47.4278 210.58 46.5005 213.808 44.8557C216.047 43.7148 218.845 43.8403 220.622 45.6172L361.378 186.373C363.155 188.15 363.28 190.948 362.139 193.187C360.494 196.415 359.567 200.069 359.567 203.94C359.567 207.19 360.221 210.288 361.404 213.108C362.311 215.27 362.083 217.838 360.426 219.495L217.031 362.89C215.182 364.739 212.243 364.795 209.967 363.508C206.525 361.562 202.548 360.451 198.312 360.451C185.216 360.451 174.599 371.068 174.599 384.165C174.599 397.262 185.216 407.879 198.312 407.879C211.409 407.879 222.026 397.262 222.026 384.165C222.026 381.684 221.645 379.291 220.938 377.043C220.296 375.002 220.627 372.708 222.14 371.196L366.907 226.429C368.612 224.724 371.272 224.535 373.467 225.534C376.457 226.895 379.781 227.654 383.281 227.654C387.152 227.654 390.806 226.726 394.033 225.081C396.272 223.94 399.071 224.066 400.848 225.843L546.652 371.646Z" fill="url(#paint1_linear_0_1)"/>
    <path fill-rule="evenodd" clip-rule="evenodd" d="M546.652 371.646C548.14 373.134 548.485 375.383 547.886 377.4C547.249 379.544 546.907 381.815 546.907 384.165C546.907 397.262 557.524 407.879 570.621 407.879C583.718 407.879 594.335 397.262 594.335 384.165C594.335 381.718 593.964 379.357 593.276 377.136C592.645 375.102 592.98 372.82 594.486 371.314L739.322 226.478C741.021 224.779 743.668 224.585 745.859 225.572C748.828 226.909 752.121 227.654 755.589 227.654C768.686 227.654 779.303 217.036 779.303 203.94C779.303 190.843 768.686 180.226 755.589 180.226C742.492 180.226 731.875 190.843 731.875 203.94C731.875 207.223 732.542 210.351 733.749 213.195C734.668 215.36 734.445 217.941 732.781 219.604L589.438 362.947C587.583 364.802 584.632 364.852 582.353 363.552C578.893 361.579 574.889 360.451 570.621 360.451C566.264 360.451 562.182 361.626 558.674 363.676C556.387 365.012 553.401 364.981 551.528 363.108L406.647 218.227C405.061 216.642 404.779 214.211 405.551 212.106C406.485 209.56 406.995 206.809 406.995 203.94C406.995 200.439 406.236 197.116 404.875 194.125C403.876 191.931 404.065 189.271 405.77 187.565L547.132 46.2031C548.837 44.4979 551.497 44.309 553.692 45.3081C556.683 46.6695 560.006 47.4278 563.506 47.4278C576.603 47.4278 587.22 36.8108 587.22 23.7139C587.22 10.6171 576.603 3.62721e-05 563.506 3.7417e-05C550.409 3.8562e-05 539.792 10.6171 539.792 23.7139C539.792 26.9644 540.446 30.0621 541.63 32.8826C542.537 35.044 542.309 37.6121 540.651 39.2695L398.836 181.085C397.179 182.742 394.611 182.97 392.449 182.063C389.629 180.88 386.531 180.226 383.281 180.226C380.411 180.226 377.661 180.736 375.115 181.669C373.01 182.441 370.579 182.159 368.994 180.574L226.421 38.0013C224.836 36.416 224.554 33.9852 225.326 31.8804C226.26 29.3344 226.769 26.5837 226.769 23.7139C226.769 10.6171 216.152 3.72661e-05 203.055 3.84111e-05C189.959 3.9556e-05 179.341 10.6171 179.341 23.7139C179.341 25.9499 179.651 28.1136 180.229 30.1646C180.792 32.1611 180.434 34.3694 178.967 35.8362L37.1521 177.652C35.614 179.19 33.2722 179.504 31.2082 178.817C28.8527 178.033 26.3331 177.609 23.7143 177.609C10.6175 177.609 0.000387567 188.226 0.000388712 201.323C0.000389857 214.419 10.6175 225.036 23.7143 225.036C36.8111 225.036 47.4282 214.419 47.4282 201.323C47.4282 197.214 46.3834 193.35 44.5451 189.981C43.3099 187.717 43.3911 184.827 45.2145 183.004L183.64 44.5779C185.534 42.6844 188.562 42.6746 190.857 44.054C194.421 46.196 198.594 47.4278 203.055 47.4278C206.926 47.4278 210.58 46.5005 213.808 44.8557C216.047 43.7148 218.845 43.8403 220.622 45.6172L361.378 186.373C363.155 188.15 363.28 190.948 362.139 193.187C360.494 196.415 359.567 200.069 359.567 203.94C359.567 207.19 360.221 210.288 361.404 213.108C362.311 215.27 362.083 217.838 360.426 219.495L217.031 362.89C215.182 364.739 212.243 364.795 209.967 363.508C206.525 361.562 202.548 360.451 198.312 360.451C185.216 360.451 174.599 371.068 174.599 384.165C174.599 397.262 185.216 407.879 198.312 407.879C211.409 407.879 222.026 397.262 222.026 384.165C222.026 381.684 221.645 379.291 220.938 377.043C220.296 375.002 220.627 372.708 222.14 371.196L366.907 226.429C368.612 224.724 371.272 224.535 373.467 225.534C376.457 226.895 379.781 227.654 383.281 227.654C387.152 227.654 390.806 226.726 394.033 225.081C396.272 223.94 399.071 224.066 400.848 225.843L546.652 371.646Z" fill="url(#paint2_linear_0_1)"/>
    <path fill-rule="evenodd" clip-rule="evenodd" d="M458.693 352.858C458.693 392.149 426.842 424 387.551 424C348.261 424 316.41 392.149 316.41 352.858C316.41 338.196 320.845 324.569 328.448 313.248C329.845 311.168 329.675 308.368 327.903 306.596L251.219 229.913C249.371 228.064 246.421 227.968 244.331 229.538C232.438 238.477 217.653 243.774 201.629 243.774C162.339 243.774 130.488 211.923 130.488 172.633C130.488 133.342 162.339 101.491 201.629 101.491C240.92 101.491 272.771 133.342 272.771 172.633C272.771 187.524 268.196 201.346 260.374 212.771C258.949 214.854 259.107 217.678 260.892 219.463L337.419 295.99C339.28 297.852 342.255 297.935 344.345 296.335C356.323 287.165 371.301 281.716 387.551 281.716C402.442 281.716 416.265 286.292 427.69 294.113C429.772 295.539 432.597 295.38 434.381 293.596L510.798 217.18C512.531 215.446 512.735 212.721 511.423 210.649C504.457 199.652 500.424 186.613 500.424 172.633C500.424 133.342 532.276 101.491 571.566 101.491C610.857 101.491 642.708 133.342 642.708 172.633C642.708 186.954 638.476 200.288 631.194 211.451C629.84 213.527 630.027 216.289 631.78 218.042L709.316 295.578C711.165 297.427 714.114 297.523 716.204 295.953C728.097 287.014 742.883 281.716 758.906 281.716C798.197 281.716 830.048 313.568 830.048 352.858C830.048 392.149 798.197 424 758.906 424C719.616 424 687.765 392.149 687.765 352.858C687.764 337.967 692.34 324.144 700.161 312.719C701.587 310.637 701.429 307.812 699.644 306.028L622.497 228.881C620.616 227 617.604 226.937 615.514 228.581C603.415 238.097 588.154 243.774 571.566 243.774C554.643 243.774 539.099 237.865 526.887 227.997C524.797 226.309 521.747 226.352 519.847 228.252L444.831 303.268C442.983 305.117 442.886 308.066 444.457 310.156C453.396 322.049 458.693 336.835 458.693 352.858Z" fill="url(#paint3_linear_0_1)"/>
    <defs>
    <linearGradient id="paint0_linear_0_1" x1="480.268" y1="424" x2="480.268" y2="101.491" gradientUnits="userSpaceOnUse">
    <stop stop-color="#232323"/>
    <stop offset="1" stop-color="#3662E3"/>
    </linearGradient>
    <linearGradient id="paint1_linear_0_1" x1="389.652" y1="407.879" x2="389.652" y2="-5.08126e-05" gradientUnits="userSpaceOnUse">
    <stop stop-color="#3662E3" stop-opacity="0.7"/>
    <stop offset="1" stop-color="#1A2151" stop-opacity="0.7"/>
    </linearGradient>
    <linearGradient id="paint2_linear_0_1" x1="389.652" y1="407.879" x2="389.652" y2="-5.08126e-05" gradientUnits="userSpaceOnUse">
    <stop stop-color="#6A89E6"/>
    <stop offset="1" stop-color="#585F87"/>
    </linearGradient>
    <linearGradient id="paint3_linear_0_1" x1="480.268" y1="424" x2="480.268" y2="101.491" gradientUnits="userSpaceOnUse">
    <stop stop-color="#1A2151"/>
    <stop offset="1" stop-color="#3662E3"/>
    </linearGradient>
    </defs>
    </svg>
    