<svg width="663" height="358" viewBox="0 0 663 358" fill="none" xmlns="http://www.w3.org/2000/svg">
    <g filter="url(#filter0_d_0_1)">
    <path fill-rule="evenodd" clip-rule="evenodd" d="M584.18 333C613.648 333 637.536 309.112 637.536 279.644C637.536 250.176 613.648 226.287 584.18 226.287C572.578 226.287 561.841 229.99 553.087 236.279C550.964 237.804 548.017 237.713 546.168 235.865L489.598 179.294C487.845 177.541 487.664 174.782 488.976 172.679C494.081 164.496 497.031 154.83 497.031 144.474C497.031 115.007 473.143 91.1182 443.675 91.1182C414.207 91.1182 390.319 115.007 390.319 144.474C390.319 154.58 393.128 164.029 398.008 172.083C399.278 174.18 399.08 176.903 397.347 178.637L341.568 234.416C339.783 236.2 336.961 236.353 334.85 234.97C326.463 229.48 316.436 226.287 305.664 226.287C293.896 226.287 283.017 230.097 274.195 236.551C272.071 238.105 269.099 238.027 267.237 236.166L211.45 180.379C209.665 178.594 209.513 175.772 210.896 173.661C216.386 165.274 219.578 155.247 219.578 144.474C219.578 115.007 195.69 91.1182 166.222 91.1182C136.754 91.1182 112.866 115.007 112.866 144.474C112.866 173.942 136.754 197.831 166.222 197.831C177.824 197.831 188.561 194.128 197.315 187.84C199.438 186.315 202.385 186.405 204.234 188.254L260.154 244.174C261.925 245.946 262.089 248.742 260.735 250.851C255.401 259.157 252.307 269.039 252.307 279.644C252.307 309.112 276.196 333 305.664 333C335.132 333 359.02 309.112 359.02 279.644C359.02 268.042 355.317 257.305 349.029 248.55C347.504 246.427 347.594 243.481 349.443 241.632L404.035 187.039C405.935 185.14 408.982 185.102 411.109 186.743C420.119 193.695 431.414 197.831 443.675 197.831C455.69 197.831 466.777 193.86 475.695 187.158C477.821 185.561 480.831 185.619 482.712 187.499L538.952 243.74C540.737 245.524 540.889 248.346 539.506 250.458C534.016 258.844 530.824 268.871 530.824 279.644C530.824 309.112 554.712 333 584.18 333Z" fill="#F2F5FE" fill-opacity="0.87" shape-rendering="crispEdges"/>
    </g>
    <g filter="url(#filter1_d_0_1)">
    <path fill-rule="evenodd" clip-rule="evenodd" d="M424.369 293.115C425.857 294.603 426.184 296.851 425.686 298.896C425.355 300.251 425.18 301.667 425.18 303.124C425.18 312.947 433.143 320.909 442.966 320.909C452.788 320.909 460.751 312.947 460.751 303.124C460.751 301.6 460.559 300.12 460.199 298.708C459.671 296.644 459.987 294.363 461.493 292.856L568.759 185.591C570.458 183.892 573.106 183.719 575.35 184.576C577.32 185.328 579.458 185.74 581.692 185.74C591.514 185.74 599.477 177.777 599.477 167.955C599.477 158.132 591.514 150.169 581.692 150.169C571.869 150.169 563.906 158.132 563.906 167.955C563.906 170.061 564.273 172.082 564.945 173.957C565.739 176.172 565.537 178.752 563.873 180.416L457.902 286.387C456.047 288.242 453.094 288.268 450.735 287.121C448.388 285.979 445.751 285.339 442.966 285.339C440.119 285.339 437.428 286.007 435.043 287.196C432.672 288.378 429.685 288.37 427.812 286.497L320.655 179.34C319.07 177.755 318.808 175.324 319.466 173.181C319.973 171.529 320.246 169.773 320.246 167.955C320.246 165.698 319.826 163.539 319.059 161.553C318.191 159.303 318.358 156.644 320.063 154.938L424.613 50.3879C426.319 48.6827 428.978 48.5156 431.228 49.3839C433.215 50.1505 435.373 50.5708 437.63 50.5708C447.452 50.5708 455.415 42.608 455.415 32.7853C455.415 22.9627 447.452 14.9999 437.63 14.9999C427.807 14.9999 419.844 22.9627 419.844 32.7854C419.844 34.8688 420.203 36.8685 420.861 38.7264C421.644 40.9357 421.437 43.5037 419.779 45.1611L314.836 150.104C313.179 151.762 310.611 151.968 308.402 151.186C306.544 150.527 304.544 150.169 302.461 150.169C300.642 150.169 298.887 150.442 297.234 150.95C295.091 151.607 292.66 151.345 291.075 149.76L185.486 44.1711C183.901 42.5858 183.639 40.1551 184.297 38.0119C184.804 36.3593 185.077 34.6042 185.077 32.7853C185.077 22.9627 177.114 14.9999 167.291 14.9999C157.469 14.9999 149.506 22.9627 149.506 32.7853C149.506 34.162 149.662 35.5022 149.958 36.789C150.424 38.8105 150.083 41.0192 148.616 42.4859L43.5094 147.593C41.9713 149.131 39.6293 149.426 37.5326 148.847C36.0214 148.429 34.4295 148.206 32.7855 148.206C22.9629 148.206 15.0001 156.169 15.0001 165.992C15.0001 175.814 22.9629 183.777 32.7855 183.777C42.6081 183.777 50.5709 175.814 50.5709 165.992C50.5709 163.315 49.9798 160.777 48.9209 158.5C47.8335 156.162 47.8914 153.272 49.7148 151.449L151.883 49.28C153.777 47.3864 156.806 47.4005 159.189 48.6222C161.619 49.8679 164.373 50.5708 167.291 50.5708C169.804 50.5708 172.195 50.0497 174.362 49.1097C176.668 48.1098 179.466 48.2125 181.243 49.9894L285.257 154.003C287.033 155.779 287.136 158.578 286.136 160.884C285.196 163.051 284.675 165.442 284.675 167.955C284.675 170.038 285.033 172.038 285.692 173.896C286.474 176.105 286.267 178.673 284.61 180.33L178.592 286.348C176.743 288.197 173.804 288.23 171.449 287.094C169.115 285.969 166.498 285.339 163.734 285.339C153.912 285.339 145.949 293.301 145.949 303.124C145.949 312.947 153.912 320.909 163.734 320.909C173.557 320.909 181.52 312.947 181.52 303.124C181.52 301.576 181.322 300.073 180.95 298.641C180.412 296.571 180.724 294.277 182.237 292.765L289.444 185.557C291.149 183.852 293.809 183.685 296.059 184.553C298.045 185.32 300.204 185.74 302.461 185.74C304.973 185.74 307.364 185.219 309.532 184.279C311.837 183.279 314.636 183.382 316.413 185.159L424.369 293.115Z" fill="#D9D9D9" fill-opacity="0.3" shape-rendering="crispEdges"/>
    </g>
    <defs>
    <filter id="filter0_d_0_1" x="97.8658" y="76.1182" width="564.67" height="281.882" filterUnits="userSpaceOnUse" color-interpolation-filters="sRGB">
    <feFlood flood-opacity="0" result="BackgroundImageFix"/>
    <feColorMatrix in="SourceAlpha" type="matrix" values="0 0 0 0 0 0 0 0 0 0 0 0 0 0 0 0 0 0 127 0" result="hardAlpha"/>
    <feOffset dx="5" dy="5"/>
    <feGaussianBlur stdDeviation="10"/>
    <feComposite in2="hardAlpha" operator="out"/>
    <feColorMatrix type="matrix" values="0 0 0 0 0.85098 0 0 0 0 0.85098 0 0 0 0 0.85098 0 0 0 0.2 0"/>
    <feBlend mode="normal" in2="BackgroundImageFix" result="effect1_dropShadow_0_1"/>
    <feBlend mode="normal" in="SourceGraphic" in2="effect1_dropShadow_0_1" result="shape"/>
    </filter>
    <filter id="filter1_d_0_1" x="6.10352e-05" y="-0.00012207" width="624.477" height="345.91" filterUnits="userSpaceOnUse" color-interpolation-filters="sRGB">
    <feFlood flood-opacity="0" result="BackgroundImageFix"/>
    <feColorMatrix in="SourceAlpha" type="matrix" values="0 0 0 0 0 0 0 0 0 0 0 0 0 0 0 0 0 0 127 0" result="hardAlpha"/>
    <feOffset dx="5" dy="5"/>
    <feGaussianBlur stdDeviation="10"/>
    <feComposite in2="hardAlpha" operator="out"/>
    <feColorMatrix type="matrix" values="0 0 0 0 0.85098 0 0 0 0 0.85098 0 0 0 0 0.85098 0 0 0 0.2 0"/>
    <feBlend mode="normal" in2="BackgroundImageFix" result="effect1_dropShadow_0_1"/>
    <feBlend mode="normal" in="SourceGraphic" in2="effect1_dropShadow_0_1" result="shape"/>
    </filter>
    </defs>
    </svg>
    