<svg width="229" height="117" viewBox="0 0 229 117" fill="none" xmlns="http://www.w3.org/2000/svg">
    <path fill-rule="evenodd" clip-rule="evenodd" d="M149.476 101.194C150.69 102.408 150.885 104.27 150.885 105.986C150.885 109.6 153.814 112.529 157.427 112.529C161.04 112.529 163.969 109.6 163.969 105.986C163.969 104.22 164.154 102.298 165.403 101.049L202.014 64.4382C203.617 62.835 206.19 62.8068 208.458 62.8068C212.071 62.8068 215 59.8777 215 56.2644C215 52.6512 212.071 49.722 208.458 49.722C204.844 49.722 201.915 52.6512 201.915 56.2644C201.915 58.4442 201.852 60.8992 200.311 62.4405L165.003 97.7486C163.148 99.6036 160.05 99.4441 157.427 99.4441C154.779 99.4441 151.617 99.6345 149.744 97.7618L113.815 61.8322C112.416 60.4334 112.285 58.2427 112.285 56.2644C112.285 53.9817 112.306 51.3873 113.921 49.7732L148.973 14.7206C150.587 13.1065 153.182 13.0847 155.464 13.0847C159.078 13.0847 162.007 10.1556 162.007 6.54237C162.007 2.92912 159.078 -2.74051e-06 155.464 -2.42463e-06C151.851 -2.10875e-06 148.922 2.92912 148.922 6.54237C148.922 8.70624 148.853 11.14 147.323 12.6701L111.87 48.1228C110.34 49.6529 107.906 49.722 105.742 49.722C103.764 49.722 101.573 49.5908 100.175 48.192L64.0929 12.1103C62.694 10.7114 62.5628 8.5207 62.5628 6.54237C62.5628 2.92912 59.6337 -1.67623e-06 56.0204 -1.36035e-06C52.4072 -1.04447e-06 49.478 2.92912 49.478 6.54237C49.478 8.19971 49.2725 9.98903 48.1006 11.1609L11.7369 47.5247C10.4266 48.8349 8.39535 49 6.54237 49C2.92912 49 -5.29779e-06 51.9291 -4.98191e-06 55.5424C-4.66603e-06 59.1556 2.92912 62.0847 6.54237 62.0847C10.1556 62.0847 13.0847 59.1556 13.0847 55.5424C13.0847 52.9814 12.9701 49.9924 14.781 48.1815L48.2115 14.751C50.1051 12.8574 53.276 13.0577 55.9538 13.0844C55.976 13.0846 55.9982 13.0847 56.0204 13.0847C58.4745 13.0847 61.3085 13.0268 63.0438 14.7621L97.5226 49.241C99.2579 50.9763 99.2 53.8103 99.2 56.2644C99.2 58.4283 99.1308 60.8621 97.6007 62.3921L62.2489 97.7439C60.4003 99.5926 57.3263 99.4441 54.7119 99.4441C51.0986 99.4441 48.1695 102.373 48.1695 105.986C48.1695 109.6 51.0986 112.529 54.7119 112.529C58.3251 112.529 61.2542 109.6 61.2542 105.986C61.2542 104.203 61.4354 102.258 62.6966 100.997L99.2512 64.4426C100.865 62.8285 103.46 62.8068 105.742 62.8068C108.196 62.8068 111.031 62.7488 112.766 64.4841L149.476 101.194Z" fill="url(#paint0_linear_0_1)"/>
    <path fill-rule="evenodd" clip-rule="evenodd" d="M209.373 116.976C220.213 116.976 229 108.189 229 97.3492C229 86.5094 220.213 77.7221 209.373 77.7221C206.153 77.7221 203.114 78.4975 200.433 79.8719C198.106 81.0642 195.168 81.0223 193.319 79.1739L176.51 62.3642C174.757 60.6114 174.623 57.86 175.63 55.5952C176.713 53.1602 177.315 50.464 177.315 47.6272C177.315 36.7874 168.528 28.0001 157.688 28.0001C146.848 28.0001 138.061 36.7874 138.061 47.6272C138.061 50.3866 138.63 53.013 139.658 55.3953C140.63 57.6466 140.479 60.3611 138.745 62.0948L122.103 78.7367C120.319 80.5214 117.505 80.6255 115.219 79.5573C112.698 78.3798 109.886 77.7221 106.921 77.7221C103.65 77.7221 100.566 78.5222 97.8537 79.9374C95.52 81.1551 92.556 81.1263 90.6947 79.265L74.2395 62.8099C72.4549 61.0252 72.3507 58.2117 73.419 55.9251C74.5965 53.4047 75.2542 50.5927 75.2542 47.6272C75.2542 36.7874 66.4669 28.0001 55.6271 28.0001C44.7874 28.0001 36 36.7874 36 47.6272C36 58.4669 44.7874 67.2543 55.6271 67.2543C58.8472 67.2543 61.8861 66.4789 64.5674 65.1045C66.8937 63.9122 69.8324 63.9541 71.6808 65.8025L88.2234 82.3451C89.9952 84.1169 90.1113 86.9053 89.0677 89.1834C87.9286 91.6698 87.2936 94.4353 87.2936 97.3492C87.2936 108.189 96.0809 116.976 106.921 116.976C117.76 116.976 126.548 108.189 126.548 97.3492C126.548 94.1291 125.772 91.0901 124.398 88.4088C123.206 86.0825 123.248 83.1439 125.096 81.2954L140.956 65.4352C142.856 63.5355 145.896 63.5468 148.25 64.8405C151.051 66.3791 154.267 67.2543 157.688 67.2543C161.034 67.2543 164.185 66.417 166.942 64.9405C169.286 63.6849 172.288 63.6939 174.168 65.5743L190.76 82.1665C192.545 83.9512 192.649 86.7646 191.581 89.0513C190.403 91.5717 189.746 94.3836 189.746 97.3492C189.746 108.189 198.533 116.976 209.373 116.976Z" fill="url(#paint1_linear_0_1)"/>
    <defs>
    <linearGradient id="paint0_linear_0_1" x1="107.5" y1="112.529" x2="107.5" y2="1.76855e-06" gradientUnits="userSpaceOnUse">
    <stop stop-color="#6A89E6"/>
    <stop offset="1" stop-color="#585F87"/>
    </linearGradient>
    <linearGradient id="paint1_linear_0_1" x1="132.5" y1="116.976" x2="132.5" y2="28.0001" gradientUnits="userSpaceOnUse">
    <stop stop-color="#1A2151"/>
    <stop offset="1" stop-color="#3662E3"/>
    </linearGradient>
    </defs>
    </svg>
    